<?xml version="1.0" encoding="UTF-8"?>
<!DOCTYPE svg PUBLIC "-//W3C//DTD SVG 1.1//EN" "http://www.w3.org/Graphics/SVG/1.1/DTD/svg11.dtd">
<!-- Creator: CorelDRAW X8 -->
<svg xmlns="http://www.w3.org/2000/svg" xml:space="preserve" width="51.2588mm" height="71.3996mm" version="1.1" style="shape-rendering:geometricPrecision; text-rendering:geometricPrecision; image-rendering:optimizeQuality; fill-rule:evenodd; clip-rule:evenodd"
viewBox="0 0 1048 1460"
 xmlns:xlink="http://www.w3.org/1999/xlink">
 <defs>
  <style type="text/css">
   <![CDATA[
    .fil0 {fill:#3E4095}
   ]]>
  </style>
 </defs>
 <g id="Camada_x0020_1">
  <metadata id="CorelCorpID_0Corel-Layer"/>
  <path class="fil0" d="M144 510l0 717 -144 0 0 -1227c194,0 335,0 529,0 489,0 524,417 519,645 -8,342 -140,555 -541,581l-246 234 0 -720 241 -233 -358 3zm178 -366c82,0 148,66 148,147 0,81 -66,147 -148,147 -81,0 -147,-66 -147,-147 0,-81 66,-147 147,-147z"/>
 </g>
</svg>
